<?xml version="1.0" standalone="no"?>
<!DOCTYPE svg PUBLIC "-//W3C//DTD SVG 20010904//EN"
 "http://www.w3.org/TR/2001/REC-SVG-20010904/DTD/svg10.dtd">
<svg version="1.0" xmlns="http://www.w3.org/2000/svg"
 width="15.5pt" height="9.8pt" viewBox="0 0 496.000000 314.000000"
 preserveAspectRatio="xMidYMid meet">

<g transform="translate(0.000000,314.000000) scale(0.100000,-0.100000)"
fill="#000000" stroke="none">
<path d="M1756 3034 c-35 -11 -65 -32 -105 -72 -67 -68 -56 -37 -222 -642 -67
-245 -123 -452 -126 -461 -3 -11 -41 -21 -151 -38 -406 -64 -632 -163 -582
-256 73 -136 643 -248 1455 -286 277 -13 988 -7 1220 11 653 49 1088 138 1199
246 41 40 45 60 15 98 -57 72 -320 154 -631 197 -64 9 -88 16 -91 28 -2 9 -64
234 -137 501 -73 267 -141 504 -152 528 -46 97 -172 170 -277 160 -25 -3 -120
-34 -211 -71 -234 -93 -267 -101 -440 -100 -173 0 -224 12 -445 103 -169 70
-235 81 -319 54z"/>
<path d="M1225 1106 c-17 -7 -44 -28 -59 -47 -26 -30 -28 -39 -23 -89 11 -127
131 -416 208 -504 155 -176 735 -334 901 -245 13 7 60 40 105 74 152 114 220
113 386 -9 113 -83 134 -90 264 -88 231 3 579 127 691 246 80 84 168 280 217
482 16 68 16 73 0 108 -10 20 -32 46 -49 59 -37 26 -52 26 -286 4 -91 -9 -244
-22 -340 -29 -233 -16 -1194 -17 -1440 0 -192 13 -490 39 -525 47 -11 2 -34
-2 -50 -9z m770 -296 c223 -25 281 -75 223 -190 -48 -94 -158 -133 -314 -112
-141 19 -236 73 -275 157 -38 83 -17 120 79 141 72 15 171 17 287 4z m1359 -5
c83 -17 96 -27 96 -72 0 -45 -20 -82 -68 -125 -101 -91 -273 -130 -403 -92
-102 31 -185 148 -145 208 24 37 80 62 166 75 41 6 86 13 100 15 62 9 191 4
254 -9z"/>
</g>
</svg>
