<svg width="368" height="298" viewBox="0 0 368 298" fill="none" xmlns="http://www.w3.org/2000/svg">
<path d="M123.216 36.301L38.8141 120.703C37.4474 122.07 37.4474 124.27 38.8141 125.637L207.619 294.475C208.986 295.842 211.186 295.842 212.552 294.475L296.955 210.039C305.022 201.972 317.455 200.872 326.689 206.772C328.456 207.906 330.756 206.606 330.756 204.506V6.0001C330.756 4.06671 329.189 2.5 327.256 2.5H128.75C126.683 2.5 125.383 4.80007 126.483 6.56678C132.383 15.8004 131.283 28.2341 123.216 36.301Z" fill="#45E0A8" stroke="white" stroke-width="2" stroke-miterlimit="10"/>
<path d="M101.099 207.6L108.947 208.123L150.804 222.25L190.045 252.073L176.965 262.537L160.745 275.095L120.458 257.829L101.099 207.6Z" fill="#45E0A8"/>
<path d="M29 209.7C86.8016 198.266 155.137 210.167 201.572 246.534" stroke="black" stroke-width="1.2" stroke-miterlimit="10" stroke-linecap="round" stroke-linejoin="round"/>
<path fill-rule="evenodd" clip-rule="evenodd" d="M43.4337 161.999C41.2003 167.299 37.2002 170.332 34.6002 168.632C32.7334 167.399 32.6334 162.299 34.8668 156.999C35.8669 154.632 37.2002 152.865 38.4669 151.532C40.0003 149.865 41.867 148.665 43.7004 149.365C45.8005 150.132 45.6338 156.699 43.4337 161.999Z" fill="black" stroke="black" stroke-width="1.2" stroke-miterlimit="10" stroke-linecap="round" stroke-linejoin="round"/>
<path fill-rule="evenodd" clip-rule="evenodd" d="M45.8345 160.399C42.7011 166.799 38.601 169.566 36.2676 168.599C33.9342 167.632 34.3675 162.432 36.6342 157.032C37.9676 153.865 39.701 151.465 41.3677 150.232C42.5677 149.332 43.7011 149.065 44.6678 149.465C47.0012 150.432 48.4012 155.165 45.8345 160.399Z" fill="white" stroke="black" stroke-width="1.2" stroke-miterlimit="10" stroke-linecap="round" stroke-linejoin="round"/>
<path fill-rule="evenodd" clip-rule="evenodd" d="M84.8019 126.164C83.7019 127.431 71.3016 144.631 64.1013 148.132C61.0679 149.598 51.5343 148.598 46.1008 149.298C43.3341 149.665 40.6007 158.765 44.8008 159.765C52.8344 161.699 66.1347 162.899 71.7682 161.732C75.1017 161.032 96.3689 148.398 101.102 138.131C105.836 127.864 84.8019 126.164 84.8019 126.164Z" fill="black" stroke="black" stroke-width="1.2" stroke-miterlimit="10" stroke-linecap="round" stroke-linejoin="round"/>
<path d="M39.333 161.399C39.333 161.399 39.9664 163.265 41.7664 162.832" stroke="black" stroke-width="1.2" stroke-miterlimit="10" stroke-linecap="round" stroke-linejoin="round"/>
<path d="M38.0996 163.132C38.0996 163.132 38.733 164.999 40.533 164.566" stroke="black" stroke-width="1.2" stroke-miterlimit="10" stroke-linecap="round" stroke-linejoin="round"/>
<path fill-rule="evenodd" clip-rule="evenodd" d="M116.036 225.101C114.769 227.001 107.702 224.967 100.269 220.534C92.8353 216.1 87.7019 212.267 88.9686 210.367C90.2353 208.467 99.4355 209.9 106.869 214.334C114.336 218.734 117.303 223.167 116.036 225.101Z" fill="black"/>
<path fill-rule="evenodd" clip-rule="evenodd" d="M137.037 244.434C135.337 247.034 126.27 243.568 117.403 236.134C110.203 230.067 107.903 225.234 109.636 222.634C111.336 220.034 118.103 222.834 125.903 228.101C137.037 235.567 138.737 241.834 137.037 244.434Z" fill="black"/>
<path d="M73.3018 205.433C99.1358 223.834 120.37 248.168 134.97 275.835" stroke="black" stroke-width="1.2" stroke-miterlimit="10" stroke-linecap="round" stroke-linejoin="round"/>
<path d="M108.736 208.8C129.27 220.067 156.738 241.434 176.272 262.902" stroke="black" stroke-width="1.2" stroke-miterlimit="10" stroke-linecap="round" stroke-linejoin="round"/>
<path fill-rule="evenodd" clip-rule="evenodd" d="M174.771 98.9969L220.505 120.864C222.539 121.831 224.872 120.364 224.872 118.131V94.2634C224.872 92.9634 224.072 91.83 222.839 91.3967L177.004 75.1296C176.304 74.8629 175.537 74.8962 174.837 75.1962L170.504 76.9629C169.071 77.5296 168.337 79.0963 168.704 80.563L173.104 97.0635C173.371 97.8969 173.971 98.6302 174.771 98.9969Z" fill="white" stroke="black" stroke-width="1.2" stroke-miterlimit="10" stroke-linecap="round" stroke-linejoin="round"/>
<path fill-rule="evenodd" clip-rule="evenodd" d="M171.637 100.464L221.539 124.764L222.906 93.8634L173.171 75.8296L163.504 79.7964L171.637 100.464Z" fill="white" stroke="black" stroke-width="1.2" stroke-miterlimit="10" stroke-linecap="round" stroke-linejoin="round"/>
<path fill-rule="evenodd" clip-rule="evenodd" d="M159.47 238.168C154.237 240.701 144.603 237.801 136.37 231.701C132.503 228.834 125.869 222.667 123.503 218.467C117.769 208.233 121.603 195.566 129.303 191.833C137.003 188.1 149.903 196.766 158.17 209.4C166.404 222.034 167.171 234.434 159.47 238.168Z" fill="black" stroke="black" stroke-width="1.2" stroke-miterlimit="10" stroke-linecap="round" stroke-linejoin="round"/>
<path fill-rule="evenodd" clip-rule="evenodd" d="M159.638 234.201C152.771 237.534 136.57 228.767 128.07 216.8C120.903 206.7 123.203 192.433 130.037 189.1C136.904 185.766 143.104 187.333 155.004 204.633C163.338 216.7 166.505 230.901 159.638 234.201Z" fill="white" stroke="white" stroke-width="1.2" stroke-miterlimit="10" stroke-linecap="round" stroke-linejoin="round"/>
<path d="M180.979 89.963C181.502 89.4914 182.167 89.4232 182.974 89.7582C184.607 90.436 185.45 91.8067 185.503 93.8702L185.578 99.0903L183.568 98.2556L183.493 93.0957C183.486 92.6287 183.388 92.2462 183.2 91.9482C183.011 91.6452 182.701 91.4042 182.269 91.2251C181.68 90.9806 181.257 91.0495 181 91.4318L181.084 97.2244L179.073 96.3896L178.905 84.8196L180.916 85.6543L180.979 89.963Z" fill="#45E0A8"/>
<path d="M189.355 90.5654L189.384 92.5691L190.672 93.1035L190.695 94.7004L189.408 94.166L189.467 98.2336C189.471 98.5349 189.527 98.773 189.636 98.9479C189.745 99.1227 189.95 99.2727 190.251 99.3979C190.474 99.4903 190.671 99.5546 190.842 99.5907L190.866 101.24C190.473 101.207 190.068 101.104 189.651 100.931C188.241 100.345 187.511 99.276 187.46 97.7228L187.397 93.3313L186.297 92.8749L186.274 91.278L187.374 91.7344L187.345 89.7307L189.355 90.5654Z" fill="#45E0A8"/>
<path d="M194.17 92.5642L194.199 94.5679L195.486 95.1023L195.509 96.6992L194.222 96.1648L194.281 100.232C194.286 100.534 194.342 100.772 194.451 100.947C194.559 101.122 194.764 101.272 195.066 101.397C195.288 101.489 195.485 101.553 195.656 101.589L195.68 103.239C195.288 103.206 194.883 103.103 194.466 102.929C193.055 102.344 192.325 101.275 192.275 99.7216L192.211 95.3301L191.112 94.8737L191.089 93.2768L192.188 93.7332L192.159 91.7295L194.17 92.5642Z" fill="#45E0A8"/>
<path d="M203.443 102.531C203.462 103.787 203.212 104.684 202.694 105.222C202.181 105.758 201.477 105.84 200.581 105.468C199.821 105.153 199.202 104.611 198.725 103.844L198.781 107.686L196.77 106.851L196.606 95.5673L198.471 96.3414L198.552 97.1687C199.03 96.7382 199.661 96.6856 200.445 97.0111C201.373 97.3962 202.099 98.0672 202.625 99.0242C203.151 99.9811 203.423 101.112 203.442 102.418L203.443 102.531ZM201.43 101.538C201.419 100.78 201.286 100.143 201.029 99.6271C200.777 99.1132 200.415 98.7581 199.942 98.5617C199.311 98.2998 198.881 98.3809 198.652 98.805L198.7 102.142C198.954 102.781 199.396 103.232 200.027 103.494C200.987 103.892 201.455 103.241 201.43 101.538Z" fill="#45E0A8"/>
<path d="M208.798 106.491C208.794 106.225 208.668 105.966 208.42 105.713C208.177 105.457 207.785 105.157 207.246 104.813C205.449 103.663 204.542 102.468 204.524 101.228C204.514 100.505 204.781 100.017 205.326 99.7636C205.875 99.5076 206.598 99.5654 207.493 99.937C208.448 100.334 209.215 100.894 209.793 101.618C210.375 102.344 210.672 103.096 210.683 103.874L208.672 103.04C208.668 102.728 208.571 102.434 208.383 102.156C208.194 101.873 207.903 101.65 207.509 101.486C207.17 101.345 206.909 101.319 206.726 101.408C206.543 101.497 206.453 101.669 206.457 101.925C206.46 102.166 206.567 102.405 206.778 102.643C206.994 102.877 207.353 103.153 207.855 103.472C208.358 103.785 208.782 104.081 209.127 104.359C210.195 105.222 210.737 106.173 210.752 107.212C210.763 107.956 210.477 108.436 209.895 108.653C209.312 108.866 208.555 108.779 207.622 108.391C206.992 108.13 206.429 107.776 205.933 107.331C205.443 106.883 205.055 106.39 204.771 105.852C204.486 105.31 204.341 104.793 204.334 104.301L206.24 105.092C206.264 105.487 206.401 105.838 206.649 106.146C206.898 106.454 207.229 106.693 207.642 106.865C208.027 107.024 208.316 107.067 208.508 106.992C208.705 106.914 208.802 106.747 208.798 106.491Z" fill="#45E0A8"/>
<path d="M212.169 109.066C212.164 108.72 212.267 108.483 212.477 108.355C212.692 108.23 212.961 108.234 213.286 108.369C213.616 108.506 213.888 108.727 214.105 109.031C214.326 109.338 214.439 109.664 214.444 110.011C214.449 110.352 214.346 110.586 214.136 110.714C213.926 110.836 213.654 110.828 213.32 110.689C212.99 110.553 212.718 110.334 212.501 110.035C212.285 109.73 212.174 109.407 212.169 109.066ZM212.08 102.897C212.075 102.55 212.177 102.313 212.387 102.186C212.602 102.061 212.872 102.065 213.197 102.2C213.526 102.337 213.799 102.557 214.015 102.862C214.237 103.168 214.35 103.495 214.355 103.841C214.36 104.183 214.257 104.417 214.047 104.545C213.836 104.667 213.564 104.659 213.23 104.52C212.901 104.383 212.628 104.165 212.412 103.866C212.195 103.561 212.085 103.238 212.08 102.897Z" fill="#45E0A8"/>
<path d="M97.3024 101.197C99.6358 101.097 101.903 100.697 103.903 99.897C107.369 98.4636 96.6357 99.597 97.3024 101.197Z" fill="black"/>
<path d="M160.704 198.333C156.67 184.233 151.837 158.065 137.87 136.565C131.17 126.264 95.6019 105.13 95.8353 100.43C96.0019 97.1635 98.002 99.6636 97.6353 100.53C97.4686 100.93 97.0686 101.197 96.6353 101.197C87.7684 101.43 79.0014 101.53 79.3348 100.83C79.3348 100.83 72.0346 114.831 85.235 128.098C99.0687 141.998 109.269 147.998 111.602 151.198C113.169 153.332 112.702 179.499 120.003 203.567C126.436 209.2 150.837 221.367 160.704 198.333Z" fill="black"/>
<path fill-rule="evenodd" clip-rule="evenodd" d="M108.235 99.897C106.902 108.764 105.769 116.264 105.769 116.264Z" fill="white"/>
<path d="M108.235 99.897C106.902 108.764 105.769 116.264 105.769 116.264" stroke="black" stroke-width="1.2" stroke-miterlimit="10" stroke-linecap="round" stroke-linejoin="round"/>
<path fill-rule="evenodd" clip-rule="evenodd" d="M123.869 104.664C123.202 109.831 122.769 113.397 122.769 113.397Z" fill="white"/>
<path d="M123.869 104.664C123.202 109.831 122.769 113.397 122.769 113.397" stroke="black" stroke-width="1.2" stroke-miterlimit="10" stroke-linecap="round" stroke-linejoin="round"/>
<path d="M227.206 118.197H224.605V160.232H227.206V118.197Z" fill="black"/>
<path d="M98.6357 47.8622L98.7691 54.1957C98.7357 54.6624 99.1691 55.0957 99.7358 55.1291C100.202 55.1624 100.969 55.4291 101.136 55.0624L102.003 51.2956L98.6357 47.8622Z" fill="black"/>
<path fill-rule="evenodd" clip-rule="evenodd" d="M97.4688 63.2292C97.4688 63.2292 93.202 63.2626 89.2685 63.2626C85.9684 63.2626 89.5019 63.8293 86.0351 66.2627C79.3016 70.9961 80.2683 83.5965 78.8349 95.5635C78.6682 96.7969 78.6016 98.0636 78.6016 99.2969V104.13C78.6016 104.13 97.9021 116.531 115.236 111.797C126.236 108.797 131.87 89.73 128.47 80.3631C124.87 70.4295 108.936 64.2626 108.936 65.1626C108.936 67.9294 105.236 68.8961 101.936 67.9961C99.7355 67.3627 97.5354 66.1627 97.4688 63.2292Z" fill="white" stroke="black" stroke-width="1.2" stroke-miterlimit="10" stroke-linecap="round" stroke-linejoin="round"/>
<path d="M79.2685 81.5297C77.7351 83.0631 75.6684 80.7297 71.9683 78.463C68.3015 76.1962 65.9015 74.2295 66.8682 72.9628C67.8349 71.6961 72.535 70.8628 76.2018 73.1295C79.9019 75.3962 80.4019 80.3964 79.2685 81.5297Z" fill="black" stroke="black" stroke-width="1.2" stroke-miterlimit="10" stroke-linecap="round" stroke-linejoin="round"/>
<path fill-rule="evenodd" clip-rule="evenodd" d="M95.5689 73.7629L113.703 79.3964L131.737 80.1631L143.437 76.6964L131.97 115.997L123.336 120.931L108.436 121.464L93.2021 113.431L94.9689 82.3965L95.5689 73.7629Z" fill="white" stroke="black" stroke-width="1.2" stroke-miterlimit="10" stroke-linecap="round" stroke-linejoin="round"/>
<path d="M102.869 89.9634C102.635 88.9633 98.4019 90.3967 96.2019 90.5967C99.7686 89.43 103.102 87.9966 102.969 87.5966C102.669 86.7299 99.8686 87.1299 94.4018 88.9633C95.9685 87.93 96.3019 87.3299 96.8686 86.8299C97.1352 86.5966 97.0352 86.1632 96.6686 86.0299C95.4018 85.5966 92.1351 87.2299 89.2017 89.2967C89.2017 89.2967 89.2017 89.2967 89.1683 89.2967C87.535 90.1634 85.7682 90.7967 83.8682 91.0634C81.5348 91.3967 78.3347 91.6967 75.7013 91.2967C68.7678 90.1967 68.9344 84.8632 86.1683 75.963L88.9683 67.5294L80.7014 65.7293C74.7346 65.496 46.0004 88.13 62.2342 98.3303C74.5013 106.03 91.8351 98.1969 91.8351 98.1969L91.9351 98.1636C95.0685 97.7636 101.002 96.4969 100.769 94.7968C100.669 94.0968 97.1352 95.0635 96.6019 95.1968C100.469 93.8635 102.902 92.8301 102.735 92.3301C102.502 91.5967 99.9686 91.9967 96.4685 92.8301C98.5686 92.1968 103.035 90.63 102.869 89.9634Z" fill="#45E0A8" stroke="black" stroke-width="1.2" stroke-miterlimit="10" stroke-linecap="round" stroke-linejoin="round"/>
<path d="M84.4014 76.1629L87.0348 75.7629L87.0681 76.8963L89.9682 76.2296L90.2349 74.2295L89.2682 73.1628H87.4015L85.8014 74.0629L84.4014 76.1629Z" fill="white"/>
<path d="M86.6017 75.763C84.635 78.3297 79.6682 81.4632 79.6682 81.4632C79.6682 81.4632 75.7014 73.3963 67.2012 72.4296C67.2012 72.4296 79.4015 59.7959 97.8354 63.296" fill="white"/>
<path d="M86.6017 75.763C84.635 78.3297 79.6682 81.4632 79.6682 81.4632C79.6682 81.4632 75.7014 73.3963 67.2012 72.4296C67.2012 72.4296 79.4015 59.7959 97.8354 63.296" stroke="black" stroke-width="1.2" stroke-miterlimit="10" stroke-linecap="round" stroke-linejoin="round"/>
<path fill-rule="evenodd" clip-rule="evenodd" d="M113.069 79.8297C113.069 79.8297 112.969 81.7298 112.169 88.5966Z" fill="white"/>
<path d="M113.069 79.8297C113.069 79.8297 112.969 81.7298 112.169 88.5966" stroke="black" stroke-width="1.2" stroke-miterlimit="10" stroke-linecap="round" stroke-linejoin="round"/>
<path fill-rule="evenodd" clip-rule="evenodd" d="M131.537 80.1298C131.537 80.1298 128.403 95.2302 125.97 106.997Z" fill="white"/>
<path d="M131.537 80.1298C131.537 80.1298 128.403 95.2302 125.97 106.997" stroke="black" stroke-width="1.2" stroke-miterlimit="10" stroke-linecap="round" stroke-linejoin="round"/>
<path d="M109.002 68.5961C109.102 68.5961 109.169 68.5294 109.269 68.5294L109.436 62.3292L109.469 61.0625L109.502 59.7625C109.536 59.7625 109.536 59.7625 109.569 59.7625C109.636 59.7625 109.736 59.7625 109.802 59.7625C109.869 59.7625 109.969 59.7625 110.036 59.7292C113.402 59.1958 115.303 54.729 114.303 49.7622C114.236 49.3955 114.136 49.0289 114.036 48.6622C114.002 48.4955 113.936 48.2955 113.869 48.1288C113.836 48.0288 113.802 47.8955 113.769 47.7955C113.669 47.4955 113.536 47.1955 113.402 46.9288C113.269 46.6621 113.136 46.3954 113.002 46.1288C112.769 45.6954 112.502 45.2621 112.236 44.8621C111.769 44.1954 111.236 43.5954 110.636 43.1287C110.536 43.0287 110.436 42.9287 110.302 42.862C110.202 42.7953 110.102 42.7287 110.036 42.662C110.002 42.6287 109.969 42.5953 109.902 42.5953C109.802 42.5287 109.702 42.462 109.602 42.3953C109.436 42.2953 109.269 42.1953 109.136 42.1287C108.969 42.062 108.802 41.962 108.636 41.9287C108.602 41.9287 108.602 41.8953 108.536 41.8953C108.436 41.862 108.302 41.7953 108.169 41.7953C108.136 41.7953 108.102 41.7953 108.102 41.7953C108.002 41.762 107.869 41.7286 107.769 41.7286C107.702 41.7286 107.602 41.6953 107.502 41.6953C107.436 41.6953 107.369 41.6953 107.269 41.6953C107.202 41.6953 107.136 41.6953 107.036 41.6953C107.002 41.6953 106.969 41.6953 106.936 41.6953C106.736 41.6953 106.536 41.6953 106.369 41.7286C103.602 42.162 103.336 46.0288 103.336 49.8622C103.636 50.0622 101.502 49.0289 101.335 49.0622C101.235 49.0622 101.135 49.0622 101.035 49.0955C100.935 49.0955 100.835 49.1289 100.769 49.1622C100.735 49.1622 100.735 49.1622 100.702 49.1955C100.669 49.1955 100.635 49.2289 100.602 49.2289C100.569 49.2289 100.535 49.2622 100.502 49.2622C100.335 49.3289 100.169 49.4289 100.035 49.5289C100.035 49.5289 100.002 49.5289 100.002 49.5622C99.9021 49.6289 99.8354 49.7289 99.7688 49.7955C99.6354 49.9622 99.5354 50.1289 99.4354 50.3289C99.0354 51.3623 99.9354 52.0956 101.069 52.4623C101.302 52.529 101.235 52.9623 101.469 52.9623L97.2354 64.6626C97.302 64.5626 103.669 71.3295 109.002 68.5961Z" fill="#45E0A8"/>
<path d="M112.303 49.6289C113.303 54.8624 111.369 59.5292 108.003 60.1292C107.836 60.1625 107.636 60.1625 107.469 60.1959L107.436 61.3292L109.403 62.0293L109.436 60.6625C109.603 60.6625 109.803 60.6292 109.969 60.5959C113.336 60.0292 115.27 55.3291 114.27 50.0956C113.37 45.1954 110.203 41.5953 107.069 41.5953C109.469 42.6954 111.569 45.7621 112.303 49.6289Z" fill="white"/>
<path d="M109.602 60.8292C109.636 62.8959 109.436 67.4627 109.436 67.4627" stroke="black" stroke-width="1.2" stroke-miterlimit="10" stroke-linecap="round" stroke-linejoin="round"/>
<path d="M97.502 62.9959L101.469 53.4956" stroke="black" stroke-width="1.2" stroke-miterlimit="10" stroke-linecap="round" stroke-linejoin="round"/>
<path d="M107.969 55.0291C107.969 55.4624 108.135 55.8957 108.402 56.2291C108.669 56.5624 109.035 56.8291 109.469 56.9624" stroke="black" stroke-width="1.2" stroke-miterlimit="10" stroke-linecap="round" stroke-linejoin="round"/>
<path d="M102.369 53.329C101.869 53.529 101.302 53.5623 100.769 53.3623C99.6354 52.9623 99.0687 51.7956 99.4688 50.7289C99.8354 49.7622 100.802 48.9622 103.036 49.6289C103.036 45.5954 103.669 42.1287 106.436 41.662C109.802 41.0953 113.336 44.8621 114.303 50.0956C115.303 55.3291 113.369 59.9959 110.002 60.5959C108.336 60.8625 106.602 60.0625 105.169 58.5625" stroke="black" stroke-width="1.2" stroke-miterlimit="10" stroke-linecap="round" stroke-linejoin="round"/>
<path d="M109.402 60.7959C109.436 61.6626 109.336 62.496 109.369 63.3626C107.469 62.2626 105.902 60.5292 105.169 58.5292C105.869 59.9959 107.736 60.9292 109.402 60.7959Z" fill="black" stroke="black" stroke-width="1.2" stroke-miterlimit="10" stroke-linecap="round" stroke-linejoin="round"/>
<path d="M109.436 67.4628C109.436 67.5295 109.402 67.5961 109.369 67.6628C109.302 67.7961 109.202 67.9295 109.102 68.0295C108.802 68.3628 108.369 68.5962 107.802 68.7628C106.302 69.1962 104.069 69.0295 101.802 68.1961C98.4354 66.9628 96.5687 65.3627 97.3687 63.3627" stroke="black" stroke-width="1.2" stroke-miterlimit="10" stroke-linecap="round" stroke-linejoin="round"/>
<path d="M139.803 93.2634C139.803 93.2634 143.237 90.0967 141.77 87.3633C140.57 85.1299 139.103 84.9299 139.103 84.9299C139.103 84.9299 134.27 83.2298 134.87 84.6965C135.47 86.1632 138.67 87.1633 138.67 87.1633C138.67 87.1633 133.77 86.1299 133.536 87.1299C133.336 88.03 138.303 89.33 138.303 89.33C138.303 89.33 134.303 88.63 133.87 89.5633C133.436 90.53 137.77 91.43 137.77 91.43C137.77 91.43 134.07 90.1633 133.57 91.0634C133.07 91.9301 135.936 93.0634 137.27 93.6301C138.603 94.1968 139.803 93.2634 139.803 93.2634Z" fill="#45E0A8" stroke="black" stroke-width="1.2" stroke-miterlimit="10" stroke-linecap="round" stroke-linejoin="round"/>
<path d="M103.478 39.7021C103.755 39.6038 103.916 39.3412 103.836 39.1156C103.756 38.89 103.466 38.7869 103.188 38.8852C102.911 38.9835 102.75 39.2461 102.83 39.4717C102.91 39.6973 103.2 39.8005 103.478 39.7021Z" fill="black" stroke="black" stroke-width="1.2" stroke-miterlimit="10" stroke-linecap="round" stroke-linejoin="round"/>
<path d="M161.771 275.635C191.138 246.068 231.739 230.567 267.707 225.7" stroke="black" stroke-width="1.2" stroke-miterlimit="10" stroke-linecap="round" stroke-linejoin="round"/>
<path fill-rule="evenodd" clip-rule="evenodd" d="M230.673 247.068C231.573 242.401 233.706 240.901 237.44 235.867C237.34 239.668 236.94 245.534 235.94 250.001" fill="#45E0A8"/>
<path d="M230.673 247.068C231.573 242.401 233.706 240.901 237.44 235.867C237.34 239.668 236.94 245.534 235.94 250.001" stroke="black" stroke-width="1.2" stroke-miterlimit="10" stroke-linecap="round" stroke-linejoin="round"/>
<path d="M99.2353 50.0956C99.8353 49.6956 101.635 48.5289 102.402 48.8622C102.835 49.0622 103.535 49.6622 103.735 49.2622C104.335 48.1288 105.102 46.9621 105.469 46.1288C102.969 46.7621 99.902 46.8621 99.002 46.7955C99.0353 48.1622 99.102 49.7956 99.2353 50.0956Z" fill="black" stroke="black" stroke-width="1.2" stroke-miterlimit="10" stroke-linecap="round" stroke-linejoin="round"/>
<path d="M102.003 40.4286C99.4359 42.3287 98.9025 44.9288 98.9692 46.9288C99.2692 46.9621 99.7026 46.9955 100.203 47.0288C102.236 47.1288 104.236 46.5621 105.969 45.5621C106.703 45.1288 107.569 44.7288 108.169 44.6954C109.836 43.7287 111.503 42.8287 112.97 41.9287C110.77 40.262 106.669 36.9619 102.003 40.4286Z" fill="white" stroke="black" stroke-width="1.2" stroke-miterlimit="10" stroke-linecap="round" stroke-linejoin="round"/>
<path d="M114.836 45.2287C115.936 45.162 116.702 44.8287 116.802 44.2953C116.936 43.4953 115.436 42.5286 113.436 42.1953C113.402 42.1953 113.369 42.1953 113.336 42.1953C113.236 42.1286 113.102 42.0286 113.002 41.9619C111.536 42.8286 109.869 43.762 108.202 44.7287C108.569 44.7287 108.936 44.7287 109.302 44.7953C110.869 45.062 112.302 45.8287 113.369 46.9287C114.636 46.5287 115.936 46.0287 116.936 45.162C117.869 44.3286 115.569 45.962 114.836 45.2287Z" fill="black"/>
<path d="M104.803 46.3622C104.803 46.3622 112.403 39.0953 118.47 41.5954C124.537 44.1288 114.503 47.9956 114.503 47.9956C114.503 47.9956 113.903 43.4954 104.803 46.3622Z" fill="white" stroke="black" stroke-width="1.2" stroke-miterlimit="10" stroke-linecap="round" stroke-linejoin="round"/>
<path d="M103.103 51.5493C103.233 50.5638 102.451 49.6476 101.355 49.503C100.26 49.3584 99.2671 50.0401 99.137 51.0257C99.0069 52.0113 99.7891 52.9275 100.884 53.0721C101.979 53.2167 102.973 52.5349 103.103 51.5493Z" fill="black"/>
<path d="M103.96 51.8289C104.328 50.9055 103.795 49.8251 102.769 49.4158C101.743 49.0064 100.613 49.4231 100.244 50.3464C99.8758 51.2698 100.409 52.3502 101.435 52.7595C102.461 53.1689 103.591 52.7522 103.96 51.8289Z" fill="#45E0A8"/>
<path d="M112.236 51.6289C112.636 51.7622 115.903 52.7956 115.336 53.6623C114.869 54.3623 111.869 54.0956 111.869 54.0956" fill="#45E0A8"/>
<path d="M112.236 51.6289C112.636 51.7622 115.903 52.7956 115.336 53.6623C114.869 54.3623 111.869 54.0956 111.869 54.0956" stroke="black" stroke-width="1.2" stroke-miterlimit="10" stroke-linecap="round" stroke-linejoin="round"/>
<path d="M79.7686 85.9631C79.7686 85.9631 87.6688 79.4963 87.0688 75.6962C87.0021 74.8628 79.8352 81.5964 79.8352 81.5964L79.7686 85.9631Z" fill="black"/>
<path d="M112.169 96.2634L109.035 119.597" stroke="black" stroke-width="1.2" stroke-miterlimit="10" stroke-linecap="round" stroke-linejoin="round"/>
<path d="M95.0342 81.3964L94.5342 88.4632C94.5342 88.4632 97.4009 87.3299 100.601 86.8299C103.801 86.3298 100.501 86.2965 100.501 86.2965L95.0342 81.3964Z" fill="white"/>
<path d="M95.5686 74.4962L94.502 88.8966" stroke="black" stroke-width="1.2" stroke-miterlimit="10" stroke-linecap="round" stroke-linejoin="round"/>
<path d="M226.805 72.9296H224.205V114.964H226.805V72.9296Z" fill="black"/>
<path fill-rule="evenodd" clip-rule="evenodd" d="M258.64 59.9291L223.873 77.7629L223.739 56.629L254.74 43.3286C255.007 43.2286 257.674 43.7619 257.94 43.8619L267.14 46.3287L258.64 59.9291Z" fill="white" stroke="black" stroke-width="1.2" stroke-miterlimit="10" stroke-linecap="round" stroke-linejoin="round"/>
<path fill-rule="evenodd" clip-rule="evenodd" d="M260.374 60.4958L226.973 78.863L227.306 57.3291L258.14 43.962L267.107 46.3621L260.374 60.4958Z" fill="white" stroke="black" stroke-width="1.2" stroke-miterlimit="10" stroke-linecap="round" stroke-linejoin="round"/>
<path fill-rule="evenodd" clip-rule="evenodd" d="M231.839 260.502L220.605 259.268V23.8281L226.339 15.6946L231.839 23.8281V260.502Z" fill="black" stroke="black" stroke-width="1.2" stroke-miterlimit="10" stroke-linecap="round" stroke-linejoin="round"/>
<path fill-rule="evenodd" clip-rule="evenodd" d="M229.239 155.332L286.374 184.866L301.641 180.066L303.541 178.332L286.407 150.598L231.239 126.298L228.172 127.664L229.239 155.332Z" fill="white" stroke="black" stroke-width="1.2" stroke-miterlimit="10" stroke-linecap="round" stroke-linejoin="round"/>
<path fill-rule="evenodd" clip-rule="evenodd" d="M225.905 157.598L282.707 187.033L301.374 180.199L284.207 152.298L226.972 127.164L225.905 157.598Z" fill="white" stroke="black" stroke-width="1.2" stroke-miterlimit="10" stroke-linecap="round" stroke-linejoin="round"/>
<path d="M239.706 145.515C240.344 144.983 241.137 144.948 242.086 145.41C244.005 146.344 244.962 148.058 244.957 150.552L244.875 156.855L242.511 155.704L242.593 149.474C242.6 148.91 242.496 148.441 242.282 148.068C242.067 147.689 241.706 147.376 241.199 147.13C240.507 146.792 240.001 146.845 239.683 147.288L239.591 154.283L237.228 153.132L237.41 139.161L239.774 140.312L239.706 145.515Z" fill="#45E0A8"/>
<path d="M249.648 146.84L249.616 149.259L251.129 149.996L251.104 151.924L249.591 151.187L249.527 156.099C249.522 156.463 249.581 156.754 249.705 156.973C249.828 157.191 250.067 157.387 250.421 157.56C250.683 157.687 250.915 157.779 251.117 157.834L251.091 159.826C250.626 159.758 250.148 159.605 249.657 159.366C247.999 158.559 247.166 157.217 247.158 155.339L247.227 150.037L245.935 149.408L245.96 147.479L247.252 148.108L247.284 145.689L249.648 146.84Z" fill="#45E0A8"/>
<path d="M255.307 149.595L255.276 152.014L256.789 152.751L256.764 154.679L255.251 153.942L255.187 158.854C255.182 159.218 255.241 159.509 255.364 159.728C255.488 159.947 255.727 160.142 256.081 160.315C256.343 160.442 256.575 160.534 256.777 160.59L256.751 162.581C256.286 162.513 255.807 162.36 255.317 162.121C253.659 161.314 252.826 159.972 252.818 158.095L252.887 152.792L251.595 152.163L251.62 150.234L252.912 150.864L252.944 148.444L255.307 149.595Z" fill="#45E0A8"/>
<path d="M266.006 162.281C265.987 163.797 265.66 164.862 265.026 165.475C264.398 166.085 263.558 166.133 262.506 165.621C261.612 165.186 260.894 164.488 260.352 163.529L260.291 168.168L257.928 167.017L258.106 153.392L260.298 154.459L260.367 155.463C260.949 154.977 261.701 154.959 262.623 155.408C263.713 155.939 264.555 156.8 265.149 157.992C265.742 159.184 266.029 160.568 266.008 162.145L266.006 162.281ZM263.645 160.94C263.657 160.024 263.519 159.246 263.231 158.606C262.949 157.968 262.529 157.513 261.973 157.243C261.232 156.882 260.718 156.949 260.431 157.444L260.379 161.473C260.659 162.263 261.17 162.838 261.912 163.199C263.041 163.748 263.618 162.995 263.645 160.94Z" fill="#45E0A8"/>
<path d="M272.244 167.441C272.248 167.12 272.107 166.798 271.82 166.475C271.539 166.149 271.083 165.76 270.453 165.306C268.354 163.791 267.315 162.284 267.335 160.786C267.346 159.913 267.68 159.343 268.336 159.077C268.998 158.807 269.855 158.929 270.908 159.441C272.031 159.988 272.924 160.718 273.587 161.633C274.255 162.55 274.584 163.479 274.571 164.419L272.208 163.268C272.213 162.892 272.108 162.53 271.893 162.181C271.678 161.826 271.339 161.536 270.875 161.311C270.477 161.117 270.168 161.067 269.947 161.161C269.726 161.255 269.614 161.456 269.61 161.766C269.606 162.057 269.726 162.353 269.969 162.654C270.217 162.952 270.635 163.311 271.222 163.731C271.809 164.145 272.304 164.532 272.705 164.893C273.947 166.01 274.56 167.196 274.543 168.451C274.532 169.349 274.176 169.908 273.476 170.128C272.776 170.343 271.879 170.184 270.783 169.65C270.041 169.289 269.383 168.822 268.809 168.25C268.24 167.674 267.796 167.052 267.475 166.383C267.155 165.709 266.999 165.074 267.006 164.48L269.247 165.571C269.263 166.048 269.414 166.482 269.7 166.871C269.985 167.26 270.371 167.573 270.856 167.809C271.309 168.03 271.651 168.102 271.882 168.025C272.119 167.945 272.24 167.751 272.244 167.441Z" fill="#45E0A8"/>
<path d="M276.167 170.789C276.173 170.37 276.302 170.092 276.557 169.953C276.816 169.817 277.137 169.842 277.519 170.028C277.906 170.216 278.223 170.502 278.471 170.885C278.723 171.27 278.847 171.672 278.842 172.09C278.836 172.503 278.706 172.778 278.452 172.917C278.198 173.05 277.875 173.02 277.482 172.829C277.095 172.641 276.778 172.358 276.53 171.981C276.283 171.598 276.162 171.201 276.167 170.789ZM276.264 163.339C276.27 162.921 276.4 162.642 276.654 162.504C276.914 162.368 277.234 162.393 277.616 162.578C278.003 162.767 278.32 163.053 278.568 163.435C278.821 163.821 278.944 164.223 278.939 164.641C278.934 165.054 278.804 165.329 278.55 165.468C278.295 165.6 277.972 165.571 277.579 165.38C277.192 165.191 276.875 164.909 276.628 164.532C276.38 164.149 276.259 163.752 276.264 163.339Z" fill="#45E0A8"/>
<path d="M239.655 59.5842C239.883 59.0131 240.188 58.6324 240.569 58.4801C241.33 58.1375 241.711 58.6324 241.749 59.9649L241.825 63.3913L240.911 63.81L240.835 60.4217C240.835 60.1172 240.797 59.9268 240.683 59.8126C240.607 59.6984 240.454 59.6984 240.264 59.7745C239.998 59.8888 239.807 60.1553 239.693 60.536L239.807 64.343L238.893 64.7618L238.703 57.1857L239.617 56.767L239.655 59.5842Z" fill="#45E0A8"/>
<path d="M243.461 55.8912L243.499 57.2237L244.109 56.9572L244.147 58.0232L243.537 58.2897L243.614 60.9546C243.614 61.145 243.652 61.2973 243.69 61.3353C243.728 61.4115 243.842 61.4115 243.956 61.3353C244.07 61.2973 244.147 61.2211 244.223 61.1831L244.261 62.249C244.07 62.4013 243.88 62.5536 243.69 62.6297C243.043 62.9343 242.7 62.5917 242.662 61.5638L242.586 58.6704L242.091 58.8988L242.053 57.8328L242.548 57.6044L242.51 56.2719L243.461 55.8912Z" fill="#45E0A8"/>
<path d="M245.67 54.8634L245.708 56.1959L246.318 55.9294L246.356 56.9954L245.746 57.2618L245.823 59.9268C245.823 60.1171 245.861 60.2694 245.899 60.3075C245.937 60.3836 246.051 60.3836 246.165 60.3075C246.279 60.2694 246.356 60.1933 246.432 60.1552L246.47 61.2212C246.279 61.3735 246.089 61.5258 245.899 61.6019C245.252 61.9065 244.909 61.5638 244.871 60.5359L244.795 57.6426L244.3 57.871L244.262 56.805L244.757 56.5766L244.719 55.2441L245.67 54.8634Z" fill="#45E0A8"/>
<path d="M249.971 56.9191C250.009 57.7567 249.895 58.442 249.667 59.0511C249.438 59.6602 249.134 60.0409 248.715 60.2694C248.372 60.4216 248.068 60.3836 247.839 60.1171L247.916 62.6297L247.002 63.0485L246.812 55.6628L247.649 55.2821L247.687 55.777C247.916 55.244 248.182 54.9014 248.563 54.7491C248.982 54.5588 249.324 54.6349 249.591 55.0156C249.857 55.3963 249.971 56.0054 250.009 56.8811L249.971 56.9191ZM249.058 57.2618C249.058 56.7668 248.982 56.4242 248.867 56.1958C248.753 55.9674 248.563 55.9293 248.372 56.0054C248.068 56.1577 247.878 56.3861 247.801 56.8049L247.839 59.013C247.954 59.3176 248.182 59.3937 248.449 59.2795C248.867 59.013 249.096 58.3658 249.058 57.2618Z" fill="#45E0A8"/>
<path d="M252.446 56.9191C252.446 56.7288 252.37 56.6145 252.256 56.5765C252.142 56.5384 251.952 56.5384 251.723 56.5765C250.886 56.6907 250.467 56.3481 250.429 55.5486C250.429 55.0917 250.543 54.6349 250.771 54.178C251 53.7592 251.342 53.4166 251.761 53.2263C252.218 53.0359 252.561 53.0359 252.827 53.2263C253.094 53.4166 253.246 53.7593 253.246 54.2922L252.332 54.711C252.332 54.5207 252.294 54.3684 252.18 54.2542C252.104 54.178 251.952 54.14 251.761 54.2542C251.609 54.3303 251.495 54.4445 251.419 54.5968C251.342 54.7491 251.304 54.9014 251.304 55.0537C251.304 55.2059 251.342 55.3201 251.457 55.3582C251.571 55.3963 251.723 55.4344 251.952 55.3963C252.18 55.3582 252.37 55.3582 252.523 55.3582C253.017 55.3963 253.284 55.777 253.284 56.4623C253.284 56.9572 253.17 57.414 252.903 57.8328C252.637 58.2516 252.294 58.5561 251.875 58.7846C251.571 58.9369 251.342 58.9749 251.114 58.8988C250.886 58.8607 250.695 58.7084 250.581 58.48C250.429 58.2516 250.391 57.9851 250.353 57.6805L251.228 57.2617C251.228 57.5282 251.304 57.6805 251.419 57.7567C251.533 57.8328 251.685 57.8328 251.875 57.7567C252.066 57.6805 252.18 57.5663 252.256 57.414C252.408 57.2617 252.446 57.1095 252.446 56.9191Z" fill="#45E0A8"/>
<path d="M253.893 52.9598C253.893 52.7314 253.931 52.541 254.045 52.3506C254.159 52.1603 254.273 52.0461 254.426 51.9699C254.578 51.8938 254.692 51.8938 254.806 52.008C254.92 52.1222 254.959 52.2745 254.959 52.5029C254.959 52.7313 254.92 52.9217 254.844 53.1121C254.768 53.3024 254.616 53.4166 254.464 53.4928C254.311 53.5689 254.197 53.5689 254.083 53.4547C253.969 53.3405 253.931 53.1882 253.893 52.9598ZM254.007 56.9953C254.007 56.7668 254.045 56.5765 254.159 56.3861C254.273 56.1958 254.387 56.0816 254.54 56.0054C254.692 55.9293 254.806 55.9293 254.92 56.0435C255.035 56.1577 255.073 56.31 255.073 56.5384C255.073 56.7668 255.035 56.9572 254.959 57.1475C254.882 57.3379 254.73 57.4521 254.578 57.5283C254.426 57.6044 254.311 57.6044 254.197 57.4902C254.083 57.376 254.007 57.2237 254.007 56.9953Z" fill="#45E0A8"/>
<path d="M283.94 152.132L286.307 150.598" stroke="black" stroke-width="1.2" stroke-miterlimit="10" stroke-linecap="round" stroke-linejoin="round"/>
<path fill-rule="evenodd" clip-rule="evenodd" d="M224.439 166.932L204.539 177.399L185.205 186.133L173.404 178.566L183.871 163.332L220.472 147.932L224.239 148.698L223.206 157.132L224.439 166.932Z" fill="white" stroke="black" stroke-width="1.2" stroke-miterlimit="10" stroke-linecap="round" stroke-linejoin="round"/>
<path fill-rule="evenodd" clip-rule="evenodd" d="M225.305 167.632L187.738 188.1L175.504 179.933L186.338 164.566L225.005 148.532L225.305 167.632Z" fill="white" stroke="black" stroke-width="1.2" stroke-miterlimit="10" stroke-linecap="round" stroke-linejoin="round"/>
<path d="M193.428 171.217C193.779 170.533 194.245 170.057 194.827 169.788C196.004 169.245 196.65 169.721 196.767 171.216L197.019 175.036L195.57 175.704L195.32 171.929C195.297 171.587 195.214 171.367 195.069 171.267C194.925 171.163 194.697 171.183 194.386 171.326C193.961 171.522 193.666 171.844 193.499 172.292L193.779 176.53L192.33 177.199L191.77 168.733L193.219 168.065L193.428 171.217Z" fill="#45E0A8"/>
<path d="M199.356 166.302L199.453 167.768L200.381 167.34L200.459 168.508L199.531 168.936L199.728 171.912C199.742 172.133 199.791 172.273 199.874 172.333C199.958 172.393 200.108 172.373 200.325 172.273C200.486 172.199 200.627 172.12 200.749 172.038L200.829 173.245C200.551 173.471 200.262 173.654 199.961 173.793C198.944 174.262 198.389 173.937 198.294 172.818L198.081 169.605L197.289 169.97L197.211 168.802L198.004 168.436L197.907 166.971L199.356 166.302Z" fill="#45E0A8"/>
<path d="M202.827 164.701L202.924 166.167L203.852 165.739L203.929 166.908L203.001 167.336L203.198 170.312C203.213 170.532 203.262 170.672 203.345 170.732C203.428 170.792 203.579 170.772 203.796 170.672C203.956 170.598 204.098 170.52 204.22 170.437L204.3 171.644C204.022 171.87 203.732 172.053 203.431 172.192C202.415 172.661 201.859 172.336 201.765 171.217L201.552 168.004L200.76 168.37L200.682 167.201L201.475 166.836L201.378 165.37L202.827 164.701Z" fill="#45E0A8"/>
<path d="M209.746 166.15C209.806 167.069 209.665 167.894 209.32 168.624C208.979 169.35 208.485 169.861 207.84 170.159C207.292 170.412 206.835 170.406 206.469 170.143L206.655 172.954L205.206 173.623L204.659 165.367L206.004 164.747L206.092 165.308C206.413 164.683 206.856 164.24 207.421 163.98C208.089 163.671 208.627 163.703 209.035 164.076C209.442 164.449 209.677 165.113 209.74 166.068L209.746 166.15ZM208.288 166.703C208.252 166.148 208.133 165.762 207.933 165.544C207.735 165.324 207.466 165.293 207.125 165.451C206.671 165.66 206.371 165.996 206.225 166.456L206.387 168.898C206.59 169.209 206.919 169.26 207.374 169.05C208.066 168.731 208.371 167.949 208.288 166.703Z" fill="#45E0A8"/>
<path d="M213.672 165.657C213.659 165.462 213.561 165.351 213.376 165.322C213.195 165.289 212.907 165.317 212.513 165.408C211.203 165.705 210.518 165.401 210.458 164.493C210.423 163.964 210.592 163.431 210.967 162.895C211.345 162.354 211.856 161.934 212.501 161.636C213.19 161.319 213.752 161.243 214.187 161.41C214.625 161.575 214.863 161.942 214.901 162.512L213.451 163.18C213.436 162.953 213.357 162.796 213.213 162.711C213.07 162.622 212.856 162.643 212.572 162.774C212.328 162.887 212.143 163.034 212.017 163.217C211.891 163.4 211.835 163.585 211.847 163.773C211.859 163.949 211.943 164.058 212.101 164.099C212.262 164.134 212.526 164.109 212.892 164.023C213.258 163.934 213.568 163.882 213.822 163.867C214.609 163.822 215.027 164.18 215.077 164.941C215.113 165.485 214.93 166.024 214.528 166.557C214.125 167.088 213.588 167.508 212.916 167.818C212.461 168.027 212.051 168.126 211.684 168.113C211.321 168.095 211.029 167.978 210.808 167.762C210.587 167.542 210.465 167.252 210.441 166.892L211.815 166.258C211.847 166.535 211.957 166.708 212.144 166.777C212.331 166.845 212.573 166.811 212.871 166.674C213.149 166.546 213.354 166.393 213.487 166.214C213.623 166.03 213.684 165.845 213.672 165.657Z" fill="#45E0A8"/>
<path d="M216.147 165.407C216.13 165.154 216.193 164.913 216.337 164.684C216.483 164.453 216.674 164.284 216.908 164.176C217.145 164.067 217.346 164.055 217.51 164.142C217.678 164.228 217.77 164.397 217.787 164.651C217.803 164.901 217.74 165.14 217.597 165.369C217.453 165.594 217.261 165.763 217.02 165.874C216.783 165.983 216.582 165.996 216.418 165.913C216.254 165.826 216.163 165.657 216.147 165.407ZM215.848 160.894C215.831 160.64 215.895 160.399 216.038 160.17C216.185 159.94 216.375 159.77 216.609 159.662C216.846 159.553 217.047 159.542 217.212 159.629C217.379 159.714 217.471 159.884 217.488 160.137C217.505 160.387 217.441 160.627 217.298 160.855C217.154 161.081 216.962 161.249 216.721 161.36C216.484 161.469 216.283 161.482 216.119 161.399C215.955 161.312 215.865 161.144 215.848 160.894Z" fill="#45E0A8"/>
<path d="M107.369 147.465C107.369 147.465 110.703 150.165 114.036 152.332" stroke="#45E0A8" stroke-width="1.2" stroke-miterlimit="10" stroke-linecap="round" stroke-linejoin="round"/>
<path d="M74.7676 109.997C75.2343 115.064 78.301 121.564 83.3678 126.631C96.6349 139.965 108.302 147.498 111.302 150.798" stroke="#45E0A8" stroke-width="1.2" stroke-miterlimit="10" stroke-linecap="round" stroke-linejoin="round"/>
<path d="M154.837 199.3C151.537 201.133 163.837 215.834 164.837 225.534C165.071 227.934 164.971 230.401 164.104 232.667C163.237 234.901 161.404 236.901 159.037 237.401" stroke="black" stroke-width="1.2" stroke-miterlimit="10" stroke-linecap="round" stroke-linejoin="round"/>
<path d="M146.971 217.2C150.871 218.6 155.904 217.334 158.004 214.367" stroke="black" stroke-width="1.2" stroke-miterlimit="10" stroke-linecap="round" stroke-linejoin="round"/>
<path d="M148.303 221.2C152.203 222.601 157.236 221.334 159.336 218.367" stroke="black" stroke-width="1.2" stroke-miterlimit="10" stroke-linecap="round" stroke-linejoin="round"/>
<path fill-rule="evenodd" clip-rule="evenodd" d="M219.105 260.535C219.639 259.201 221.272 257.668 222.272 257.768C223.539 257.868 224.639 258.801 225.739 259.568C226.839 260.335 228.206 260.901 229.372 260.301C230.072 259.901 230.839 259.435 231.539 259.001C232.573 258.335 233.873 258.568 234.906 259.201C235.939 259.835 236.439 260.568 237.239 261.568" fill="#45E0A8"/>
<path d="M219.105 260.535C219.639 259.201 221.272 257.668 222.272 257.768C223.539 257.868 224.639 258.801 225.739 259.568C226.839 260.335 228.206 260.901 229.372 260.301C230.072 259.901 230.839 259.435 231.539 259.001C232.573 258.335 233.873 258.568 234.906 259.201C235.939 259.835 236.439 260.568 237.239 261.568" stroke="black" stroke-width="1.2" stroke-miterlimit="10" stroke-linecap="round" stroke-linejoin="round"/>
<path fill-rule="evenodd" clip-rule="evenodd" d="M218.705 264.468C218.672 262.235 215.372 252.701 210.538 244.801C216.238 248.535 220.938 253.135 222.372 259.335" fill="#45E0A8"/>
<path d="M218.705 264.468C218.672 262.235 215.372 252.701 210.538 244.801C216.238 248.535 220.938 253.135 222.372 259.335" stroke="black" stroke-width="1.2" stroke-miterlimit="10" stroke-linecap="round" stroke-linejoin="round"/>
<path fill-rule="evenodd" clip-rule="evenodd" d="M214.239 261.035C213.772 258.002 212.672 255.035 210.905 252.301C213.705 254.101 215.905 256.435 217.339 259.002" fill="#45E0A8"/>
<path d="M214.239 261.035C213.772 258.002 212.672 255.035 210.905 252.301C213.705 254.101 215.905 256.435 217.339 259.002" stroke="black" stroke-width="1.2" stroke-miterlimit="10" stroke-linecap="round" stroke-linejoin="round"/>
<path fill-rule="evenodd" clip-rule="evenodd" d="M235.073 250.368C235.973 247.701 238.773 245.401 241.24 243.601C240.307 246.468 239.373 249.368 238.44 252.235" fill="#45E0A8"/>
<path d="M235.073 250.368C235.973 247.701 238.773 245.401 241.24 243.601C240.307 246.468 239.373 249.368 238.44 252.235" stroke="black" stroke-width="1.2" stroke-miterlimit="10" stroke-linecap="round" stroke-linejoin="round"/>
<path d="M67.6344 206.6C66.8344 204.7 65.7677 202.933 64.501 201.3C67.001 201.966 69.1344 203.833 70.1345 206.233" fill="#45E0A8"/>
<path d="M67.6344 206.6C66.8344 204.7 65.7677 202.933 64.501 201.3C67.001 201.966 69.1344 203.833 70.1345 206.233" stroke="black" stroke-width="1.2" stroke-miterlimit="10" stroke-linecap="round" stroke-linejoin="round"/>
<path d="M74.3013 206.4C73.868 205.4 73.668 204.3 73.8013 203.2C72.9346 203.9 72.768 204.867 72.3679 205.867C71.7346 203.733 71.1679 201.567 70.7346 199.366C69.6345 201.967 69.2345 204.833 69.6012 207.633" fill="#45E0A8"/>
<path d="M74.3013 206.4C73.868 205.4 73.668 204.3 73.8013 203.2C72.9346 203.9 72.768 204.867 72.3679 205.867C71.7346 203.733 71.1679 201.567 70.7346 199.366C69.6345 201.967 69.2345 204.833 69.6012 207.633" stroke="black" stroke-width="1.2" stroke-miterlimit="10" stroke-linecap="round" stroke-linejoin="round"/>
<path d="M229.538 121.164H222.738V175.733H229.538V121.164Z" fill="black"/>
<path d="M183.871 163.332L186.338 164.565" stroke="black" stroke-width="1.2" stroke-miterlimit="10" stroke-linecap="round" stroke-linejoin="round"/>
</svg>
